<?xml version="1.0" standalone="no"?><!DOCTYPE svg PUBLIC "-//W3C//DTD SVG 1.1//EN" "http://www.w3.org/Graphics/SVG/1.1/DTD/svg11.dtd"><svg t="1766394255388" class="icon" viewBox="0 0 1024 1024" version="1.1" xmlns="http://www.w3.org/2000/svg" p-id="7932" xmlns:xlink="http://www.w3.org/1999/xlink" width="200" height="200"><path d="M318.72 283.2c-24.64 0-44.8-20.16-44.8-44.8V109.12c0-24.64 20.16-44.8 44.8-44.8 24.64 0 44.8 20.16 44.8 44.8v129.28c0 24.64-19.84 44.8-44.8 44.8z m396.8 0c24.64 0 44.8-20.16 44.8-44.8V109.12c0-24.64-20.16-44.8-44.8-44.8-24.64 0-44.8 20.16-44.8 44.8v129.28c0.32 24.64 20.16 44.8 44.8 44.8z" fill="#333333" p-id="7933"></path><path d="M81.28 355.52V261.76c0-73.28 59.52-132.8 132.8-132.8h40.96v108.8c0 35.2 28.8 64 64 64s64-28.8 64-64v-108.8h268.8v108.8c0 35.2 28.8 64 64 64s64-28.8 64-64v-108.8h30.08c73.28 0 132.8 59.52 132.8 132.8v93.76H81.28z" fill="#333333" p-id="7934"></path><path d="M81.28 444.8v381.12c0 73.28 59.52 132.8 132.8 132.8h595.84c73.28 0 132.8-59.52 132.8-132.8V444.8H81.28z m621.76 179.52l-205.12 205.12c-8.32 8.32-19.2 12.48-29.76 12.48-10.88 0-21.76-4.16-29.76-12.48l-117.12-117.44c-16.64-16.64-16.64-43.2 0-59.84s43.2-16.64 59.84 0l87.36 87.36 175.36-175.36c16.64-16.64 43.2-16.64 59.84 0 16 16.96 16 43.52-0.64 60.16z" fill="#333333" p-id="7935"></path></svg>