<?xml version="1.0" standalone="no"?><!DOCTYPE svg PUBLIC "-//W3C//DTD SVG 1.1//EN" "http://www.w3.org/Graphics/SVG/1.1/DTD/svg11.dtd"><svg t="1766394319361" class="icon" viewBox="0 0 1024 1024" version="1.1" xmlns="http://www.w3.org/2000/svg" p-id="8963" xmlns:xlink="http://www.w3.org/1999/xlink" width="200" height="200"><path d="M543.6 919.7l4.904 5.132H40V96.484h172.156V40h59.2v56.484h295.832V40h59.152v56.484h148.14v361.844a264.712 264.712 0 0 1-59.376 523.02 266.508 266.508 0 0 1-171.504-61.648z m-35.6-203.116c0 111.796 94.672 205.928 207.104 205.928s207.072-94.132 207.072-205.928-94.672-205.928-207.072-205.928S508 604.8 508 716.584zM96.484 865.676h395.492l10.4 10.88a265.016 265.016 0 0 1 212.72-424.736h2.892V155.672h-91.66v60.836h-59.152V155.672H271.344v60.836h-59.2V155.672H96.484z m602.34-63.2v-225.96h56.516V746h113.004v56.484zM153.004 746v-58.832h236.648V746z m0-176.508v-58.832h295.832v58.836z m0-176.476V334.18h532.48v58.836z" p-id="8964"></path></svg>